<svg width="30" height="21" viewBox="0 0 30 21" version="1.1" xmlns="http://www.w3.org/2000/svg" xmlns:xlink="http://www.w3.org/1999/xlink">
<title>backspace</title>
<desc>Created using Figma</desc>
<g id="Canvas" transform="translate(-1835 1114)">
<g id="backspace">
<g id="Shape">
<use xlink:href="#path0_fill" transform="translate(1835.75 -1113.98)" fill="#000000"/>
</g>
</g>
</g>
<defs>
<path id="path0_fill" fill-rule="evenodd" d="M 28.3386 0.804565C 28.8308 1.30261 29.0769 1.93469 29.0769 2.70093L 29.0769 17.4125C 29.0769 18.1787 28.8214 18.8396 28.3103 19.3951C 27.7991 19.9506 27.1838 20.2284 26.4646 20.2284L 9.54089 20.2284C 8.82153 20.2284 8.17786 20.0559 7.60999 19.7112C 7.1178 19.443 6.68237 19.0598 6.30383 18.5618L 6.24695 18.5044L 0 10.1141L 6.24695 1.60913C 7.04211 0.536377 8.14001 0 9.54089 0L 26.4646 0C 27.1838 0 27.8086 0.268188 28.3386 0.804565ZM 23.4546 14.4817C 23.5682 14.5966 23.625 14.7115 23.625 14.8264C 23.625 14.9414 23.5682 15.0563 23.4546 15.1713L 22.262 16.4355C 22.1863 16.5121 22.0728 16.5504 21.9213 16.5504C 21.7698 16.5504 21.6562 16.5121 21.5806 16.4355L 17.2644 12.0106L 12.9484 16.4355C 12.9177 16.4666 12.8809 16.4912 12.8379 16.5096C 12.7745 16.5369 12.6978 16.5504 12.6075 16.5504C 12.4562 16.5504 12.3425 16.5121 12.2668 16.4355L 11.0742 15.1713C 11.0125 15.1088 10.9674 15.0463 10.9392 14.9838C 10.9156 14.9313 10.9038 14.8789 10.9038 14.8264C 10.9038 14.7115 10.9606 14.5966 11.0742 14.4817L 15.3903 10.1141L 11.0175 5.7467C 10.7903 5.51685 10.7903 5.28699 11.0175 5.05701L 12.2668 3.79285C 12.2949 3.7644 12.3281 3.74133 12.3666 3.72351C 12.4319 3.69312 12.5122 3.67786 12.6075 3.67786C 12.759 3.67786 12.8726 3.71619 12.9484 3.79285L 17.2644 8.16028L 21.5806 3.79285C 21.6271 3.74573 21.6879 3.71313 21.7631 3.69495C 21.8102 3.68359 21.8629 3.67786 21.9213 3.67786C 22.0728 3.67786 22.1863 3.71619 22.262 3.79285L 23.5114 5.05701C 23.7385 5.28699 23.7385 5.51685 23.5114 5.7467L 19.1385 10.1141L 23.4546 14.4817ZM 27.2596 2.70105L 27.2596 17.4125C 27.2596 18.0638 26.9945 18.3895 26.4645 18.3895L 9.54089 18.3895C 8.82153 18.3895 8.2157 18.083 7.72351 17.47L 2.27161 10.1143L 7.72351 2.75842C 8.17786 2.14551 8.78357 1.83899 9.54089 1.83899L 26.4645 1.83899C 26.9945 1.83899 27.2596 2.12634 27.2596 2.70105Z"/>
</defs>
</svg>
