<svg width="20" height="11" viewBox="0 0 20 11" version="1.1" xmlns="http://www.w3.org/2000/svg" xmlns:xlink="http://www.w3.org/1999/xlink">
<title>Icon</title>
<desc>Created using Figma</desc>
<g id="Canvas" transform="translate(416 1327)">
<g id="Icon" opacity="0.4">
<use xlink:href="#path0_fill" transform="translate(-416 -1327)" fill="#5A5A5A"/>
</g>
</g>
<defs>
<path id="path0_fill" fill-rule="evenodd" d="M 19.2653 4.15894C 17.3385 2.49719 14.0944 0.0821533 10.0132 0L 10.0007 0L 9.9881 0C 5.90833 0.0821533 2.66071 2.49719 0.733917 4.15894L 0.722046 4.16907C 0.597534 4.2749 0.0103149 4.77429 0.000213623 5.40637C -0.00747681 5.86804 0.195679 6.20923 0.48819 6.49475C 2.06244 8.10852 5.49786 10.9778 9.9888 10.9985L 9.9888 11L 10.0014 11L 10.0139 11L 10.0139 10.9985C 14.5133 10.9778 17.9382 8.10852 19.5132 6.49475C 19.8057 6.20923 20.0081 5.86804 19.9998 5.40637C 19.9883 4.77075 19.3959 4.26953 19.2752 4.16736L 19.2653 4.15894ZM 10.0007 9.75708C 7.79324 9.74146 6.00818 7.8407 6.00818 5.49817C 6.00818 3.15564 7.79324 1.25488 10.0007 1.24011C 12.2137 1.25488 13.9925 3.15564 13.9925 5.49817C 13.9925 7.8407 12.2137 9.74072 10.0007 9.75708ZM 10.0007 3.84229C 10.0049 3.84229 10.0091 3.84229 10.0132 3.84302C 10.8643 3.86523 11.5372 4.59766 11.5372 5.49817C 11.5372 6.39856 10.8643 7.13184 10.0132 7.15332L 10.0132 7.15479C 10.0106 7.15479 10.0081 7.1543 10.0059 7.15393C 10.004 7.15356 10.0023 7.15332 10.0007 7.15332C 9.99869 7.15332 9.99667 7.15369 9.99466 7.15405C 9.99246 7.15442 9.9903 7.15479 9.98813 7.15479L 9.98813 7.15332C 9.1427 7.13184 8.46414 6.39856 8.46414 5.49817C 8.46414 4.59766 9.1434 3.86523 9.98813 3.84229L 10.0007 3.84229Z"/>
</defs>
</svg>
