<svg width="45" height="37" viewBox="0 0 45 37" version="1.1" xmlns="http://www.w3.org/2000/svg" xmlns:xlink="http://www.w3.org/1999/xlink">
<title>refresh 2</title>
<desc>Created using Figma</desc>
<g id="Canvas" transform="translate(-36 1522)">
<g id="refresh 2">
<g id="Shape">
<use xlink:href="#path0_fill" transform="translate(36 -1522)" fill="#455FFF"/>
</g>
<g id="Oval 2">
<use xlink:href="#path1_fill" transform="translate(51.4688 -1510.62)" fill="#455FFF"/>
</g>
</g>
</g>
<defs>
<path id="path0_fill" fill-rule="evenodd" d="M 34.5686 5.29504C 31.0803 1.76501 26.8772 0 21.9593 0C 18.7569 0 15.769 0.824585 12.9955 2.47388C 10.222 4.12317 8.03465 6.3656 6.43346 9.20129L 6.26191 9.54846L 8.06324 10.5033L 8.23479 10.2429C 9.66442 7.69666 11.6087 5.7002 14.0677 4.25342C 16.5267 2.80664 19.1572 2.08325 21.9593 2.08325C 26.3053 2.08325 30.0224 3.64575 33.1104 6.77075C 36.1984 9.89563 37.7424 13.6572 37.7424 18.0553L 32.939 18.0553L 38.4288 23.6107L 43.9186 18.0553L 39.801 18.0553C 39.801 13.0785 38.0569 8.82507 34.5686 5.29504ZM 39.801 18.0553L 37.7424 18.0553C 37.7424 18.8076 37.628 19.8782 37.3993 21.2671L 37.3135 21.6143L 39.3722 22.0483L 39.4579 21.701C 39.6867 20.6016 39.801 19.3862 39.801 18.0553ZM 35.8551 25.6072L 35.6835 25.8677C 34.2539 28.4139 32.3096 30.4104 29.8506 31.8572C 27.3917 33.3038 24.7611 34.0272 21.9591 34.0272C 17.613 34.0272 13.896 32.4647 10.8079 29.3398C 7.71995 26.2148 6.17595 22.4534 6.17595 18.0553L 10.9796 18.0553L 5.48978 12.4999L 0 18.0553L 4.11728 18.0553C 4.11728 23.032 5.86142 27.2854 9.34972 30.8154C 12.838 34.3456 17.0411 36.1106 21.9591 36.1106C 25.1614 36.1106 28.1494 35.2859 30.9229 33.6366C 33.6963 31.9873 35.8837 29.7449 37.4849 26.9093L 37.6564 26.562L 35.8551 25.6072ZM 4.11728 18.0553L 6.17595 18.0553C 6.17595 17.303 6.29031 16.2324 6.51905 14.8435L 6.60484 14.4962L 4.54617 14.0623L 4.46039 14.4094C 4.23165 15.509 4.11728 16.7242 4.11728 18.0553Z"/>
<path id="path1_fill" fill-rule="evenodd" d="M 6.32812 12.8077C 9.82305 12.8077 12.6562 9.94059 12.6562 6.40385C 12.6562 2.8671 9.82305 0 6.32812 0C 2.8332 0 0 2.8671 0 6.40385C 0 9.94059 2.8332 12.8077 6.32812 12.8077Z"/>
</defs>
</svg>
